<?xml version="1.0" standalone="no"?><!DOCTYPE svg PUBLIC "-//W3C//DTD SVG 1.1//EN" "http://www.w3.org/Graphics/SVG/1.1/DTD/svg11.dtd"><svg width="100%" height="100%" viewBox="0 0 815 1500" version="1.1" xmlns="http://www.w3.org/2000/svg" xmlns:xlink="http://www.w3.org/1999/xlink" xml:space="preserve" style="fill-rule:evenodd;clip-rule:evenodd;stroke-linejoin:round;stroke-miterlimit:1.41421;"><g id="Layer1"><g><g><g><path d="M680.034,1.11687l-120.897,0l-5.56832,2.80537l0,5.61073l130.641,0l0,-5.61073l-4.17624,-2.80537Z" style="fill:#808184;"/><path d="M559.138,1.11687l120.79,0l4.17624,2.80537l-130.641,0l5.67541,-2.80537Z" style="fill:#a6a8ac;"/></g><g><path d="M3.59009,214.325c-1.39208,1.21566 -2.35583,2.05727 -3.21249,2.80537l0,62.6532c1.07083,0.935122 1.82041,1.58971 3.21249,2.80537l6.42499,0l0,-68.2639l-6.42499,0Z" style="fill:#808184;"/><path d="M3.59009,282.589c-1.39208,-1.21566 -2.14166,-1.87024 -3.21249,-2.80537l0,-62.6532c0.856665,-0.748098 1.82041,-1.58971 3.21249,-2.80537c0,4.02103 0,66.3002 0,68.2639Z" style="fill:#a6a8ac;fill-rule:nonzero;"/><path d="M3.59009,355.528c-1.39208,1.21566 -2.35583,2.05727 -3.21249,2.80537l0,46.7561c1.07083,0.935122 1.82041,1.58971 3.21249,2.80537l6.42499,0l0,-52.3668l-6.42499,0Z" style="fill:#808184;"/><path d="M3.59009,407.895c-1.39208,-1.21566 -2.14166,-1.87024 -3.21249,-2.80537l0,-46.7561c0.856665,-0.748098 1.82041,-1.58971 3.21249,-2.80537c0,4.02103 0,50.4031 0,52.3668Z" style="fill:#a6a8ac;fill-rule:nonzero;"/><path d="M3.59009,458.392c-1.39208,1.21566 -2.35583,2.05727 -3.21249,2.80537l0,46.7561c1.07083,0.935122 1.82041,1.58971 3.21249,2.80537l6.42499,0l0,-52.3668l-6.42499,0Z" style="fill:#808184;"/><path d="M3.59009,510.758c-1.39208,-1.21566 -2.14166,-1.87024 -3.21249,-2.80537l0,-46.7561c0.856665,-0.748098 1.82041,-1.58971 3.21249,-2.80537c0,4.11454 0,50.4031 0,52.3668Z" style="fill:#a6a8ac;fill-rule:nonzero;"/></g><path d="M779.622,38.8958c-22.7016,-19.8246 -52.792,-30.672 -84.9169,-30.672l-567.327,0c-32.0179,0 -62.2153,10.8474 -84.9169,30.672c-22.5945,19.8246 -35.1233,46.1015 -35.1233,74.1552l0,1279.25c0,27.9602 12.5287,54.3306 35.1233,74.0617c22.7016,19.8246 52.792,30.672 84.9169,30.672l567.22,0c32.0179,0 62.2153,-10.9409 84.9169,-30.672c22.7016,-19.8246 35.1233,-46.1015 35.1233,-74.0617l0,-1279.25c0.107083,-28.0537 -12.4216,-54.3306 -35.0162,-74.1552Z" style="fill:#a6a8ac;fill-rule:nonzero;"/><g><path d="M694.705,16.6399l-567.327,0c-60.9303,0 -110.403,43.2026 -110.403,96.3176l0,1279.25c0,53.1149 49.5795,96.3176 110.403,96.3176l567.22,0c60.9303,0 110.403,-43.2026 110.403,-96.3176l0,-1279.25c0.107083,-53.0214 -49.4724,-96.3176 -110.296,-96.3176Z" style="fill:#231f20;fill-rule:nonzero;"/><path d="M801.895,1392.2c0,51.6187 -47.9733,93.5122 -107.19,93.5122l-567.327,0c-59.217,0 -107.19,-41.8935 -107.19,-93.5122l0,-1279.25c0,-51.6187 47.9733,-93.5122 107.19,-93.5122l567.22,0c59.217,0 107.19,41.8935 107.19,93.5122l0,1279.25l0.107083,0Z" style="fill:#030303;fill-rule:nonzero;"/></g><rect x="68.3754" y="223.208" width="685.332" height="1062.3" style="fill:#fff;"/><path d="M753.708,223.208l0,1062.3l-685.332,0l0,-1062.3l685.332,0M753.708,218.533l-685.332,0c-2.99833,0 -5.35416,2.05727 -5.35416,4.67561l0,1062.3c0,2.61834 2.35583,4.67561 5.35416,4.67561l685.332,0c2.99833,0 5.35416,-2.05727 5.35416,-4.67561l0,-1062.3c0,-2.61834 -2.35583,-4.67561 -5.35416,-4.67561Z" style="fill:#231f20;fill-opacity:0.5;fill-rule:nonzero;"/><g><path d="M486,159.34c0,7.76151 -7.17457,14.0268 -16.0625,14.0268l-117.791,0c-8.8879,0 -16.0625,-6.26532 -16.0625,-14.0268c0,-7.76151 7.17457,-14.0268 16.0625,-14.0268l117.791,0c8.8879,0 16.0625,6.26532 16.0625,14.0268Z" style="fill:#231f20;fill-rule:nonzero;"/><path d="M469.937,151.859l-117.791,0c-4.71166,0 -8.56665,3.36644 -8.56665,7.48098c0,4.11454 3.85499,7.48098 8.56665,7.48098l117.791,0c1.82041,0 3.53374,-0.561073 4.92583,-1.40268c2.14166,-1.40268 3.64083,-3.55346 3.64083,-6.07829c0,-4.11454 -3.85499,-7.48098 -8.56665,-7.48098Z" style="fill:#010101;fill-rule:nonzero;"/></g><g><ellipse cx="411.042" cy="94.255" rx="15.2058" ry="13.2787" style="fill:#231f20;"/><ellipse cx="411.042" cy="94.255" rx="6.53207" ry="5.70425" style="fill:#010101;"/><ellipse cx="411.042" cy="94.255" rx="4.49749" ry="3.92751" style="fill:#231f20;"/><ellipse cx="411.042" cy="92.3848" rx="1.9275" ry="1.12215" style="fill:#fff;"/></g></g><g><rect x="7.33801" y="136.897" width="12.85" height="11.2215" style="fill:#131517;"/><rect x="801.895" y="136.897" width="12.85" height="11.2215" style="fill:#131517;"/><rect x="7.33801" y="1358.17" width="12.85" height="11.2215" style="fill:#131517;"/><rect x="801.895" y="1358.17" width="12.85" height="11.2215" style="fill:#131517;"/></g></g><path d="M411.694,1329.35c-25.4371,0 -46.0102,20.3683 -46.0102,45.5522c0,25.1839 20.5731,45.5522 46.0102,45.5522c25.4371,0 46.0102,-20.3683 46.0102,-45.5522c0,-25.1839 -20.6389,-45.5522 -46.0102,-45.5522ZM411.628,1415.24c-22.4793,0 -40.7519,-18.0907 -40.7519,-40.3462c0,-22.2555 18.2726,-40.3462 40.7519,-40.3462c22.4793,0 40.7519,18.0907 40.7519,40.3462c0,22.2555 -18.2069,40.3462 -40.7519,40.3462Z" style="fill:#231f20;"/></g></svg>