<?xml version="1.0" standalone="no"?><!DOCTYPE svg PUBLIC "-//W3C//DTD SVG 1.1//EN" "http://www.w3.org/Graphics/SVG/1.1/DTD/svg11.dtd"><svg width="100%" height="100%" viewBox="0 0 1920 1600" version="1.1" xmlns="http://www.w3.org/2000/svg" xmlns:xlink="http://www.w3.org/1999/xlink" xml:space="preserve" style="fill-rule:evenodd;clip-rule:evenodd;stroke-linejoin:round;stroke-miterlimit:1.41421;"><g id="Layer1"><path d="M1920,1189.31l0,134.662c0,27.2233 -21.3,49.3553 -47.5,49.3553l-1825,0c-26.2,0 -47.5,-22.1319 -47.5,-49.3553l0,-134.662l1920,0Z" style="fill:#d2d3d4;"/><path d="M977.1,1253c-3.2,0 -6.1,0.519529 -8.7,1.45468l-1.6,0.623435l-2.2,0.935152c-1.4,0.519529 -2.7,0.831246 -3.9,0.831246c-0.9,0 -2.1,-0.311717 -3.6,-0.935152l-1.7,-0.727341l-1.6,-0.623435c-2.3,-1.03906 -4.8,-1.55859 -7.5,-1.55859c-7.2,0 -12.9,2.49374 -17.2,7.48122c-4.3,4.98748 -6.5,11.6374 -6.5,19.846c0,11.5335 3.5,22.2358 10.4,32.003c4.8,6.85778 9.2,10.2867 13.2,10.2867c1.7,0 3.4,-0.311717 5,-1.03906l2.1,-0.935152l1.7,-0.623435c2.4,-0.831246 4.5,-1.35078 6.5,-1.35078c2.1,0 4.5,0.519529 7.2,1.66249l1.3,0.519529c2.8,1.14296 5,1.66249 6.6,1.66249c3.4,0 7.2,-2.38983 11.3,-7.27341c4.1,-4.88357 7.3,-10.5984 9.5,-17.1445c-8.1,-4.36404 -12.2,-10.5984 -12.2,-18.8069c0,-6.85778 3.3,-12.6765 9.9,-17.4562c-4.5,-5.81872 -10.5,-8.83199 -18,-8.83199l2.27374e-13,0ZM976,1231.49c-4.4,0.623435 -8.3,2.90936 -11.7,6.75388c-3.4,3.84451 -5,8.00075 -5,12.3648c0,0.519529 0.1,1.35078 0.2,2.49374c4.8,0 9,-1.97421 12.6,-5.81872c3.6,-3.94842 5.4,-8.41637 5.4,-13.6117c0,-0.519529 0,-1.35078 -0.1,-2.38983c-0.6,-4.54747e-13 -1.1,0.103906 -1.4,0.207812l0,-4.54747e-13Z" style="fill:#424143;fill-rule:nonzero;"/><path d="M1920,49.3553c0,-27.2233 -21.3,-49.3553 -47.5,-49.3553l-1825,0c-26.2,0 -47.5,22.1319 -47.5,49.3553l0,1139.95l1920,0l0,-1139.95Z" style="fill:#010101;fill-rule:nonzero;"/><rect x="77.5" y="77.9293" width="1764.9" height="1031.78" style="fill:#fff;"/><path d="M1844.9,1112.31l-1769.9,0l0,-1036.98l1769.9,0l0,1036.98ZM80,1107.12l1759.9,0l0,-1026.59l-1759.9,0l0,1026.59Z" style="fill:#151517;fill-rule:nonzero;"/><g><path d="M930,40.3154c0.8,0 1.5,0.727341 1.5,1.55859c0,0.831246 -0.7,1.55859 -1.5,1.55859c-0.8,0 -1.5,-0.727341 -1.5,-1.55859c0,-0.831246 0.7,-1.55859 1.5,-1.55859Z" style="fill:#424143;"/><g><path d="M960,34.0811c4.1,0 7.5,3.5328 7.5,7.79293c0,4.26014 -3.4,7.79293 -7.5,7.79293c-4.1,0 -7.5,-3.5328 -7.5,-7.79293c0,-4.26014 3.3,-7.79293 7.5,-7.79293Z" style="fill:#424143;"/><path d="M960,38.653c1.7,0 3.1,1.45468 3.1,3.22108c0,1.7664 -1.4,3.22108 -3.1,3.22108c-1.7,0 -3.1,-1.45468 -3.1,-3.22108c0,-1.7664 1.4,-3.22108 3.1,-3.22108Z" style="fill:#818285;"/></g></g><rect x="0" y="1189.31" width="1920" height="0.727341" style="fill:#e7e7e7;"/><path d="M1207.5,1594.23c-135.3,0 -385.9,0 -495.1,0c-43.6,0 -44,-3.6367 -44,-3.6367l58.9,-16.3132c0,0 14.6,-4.67576 20.7,-16.521c9.4,-18.2874 11.9,-46.5498 11.9,-46.5498l9.5,-137.883l381.1,0l9.5,137.883c0,0 2.5,28.2624 11.9,46.5498c6.2,11.9492 20.7,16.521 20.7,16.521l58.9,16.3132c-2.27374e-13,0 -0.2,3.6367 -44,3.6367l-2.27374e-13,0Z" style="fill:#bdbec0;"/><path d="M668.4,1594.85c0,0 7.3,5.19529 44,5.19529c109.1,0 359.7,0 495.1,0c32.6,0 44,-5.2992 44,-5.2992l0,-4.15623c0,0 -0.1,3.6367 -44,3.6367c-135.3,0 -385.9,0 -495.1,0c-44.1,0 -44,-3.6367 -44,-3.6367l0,4.26014Z" style="fill:#d2d3d4;"/></g></svg>