<svg xmlns="http://www.w3.org/2000/svg" width="690" height="490" clip-rule="evenodd">
 <g>
  <title>Layer 1</title>
  <g id="svg_1">
   <g id="Layer1">
    <g transform="rotate(180 343.101 243.313)" id="svg_2">
     <path id="svg_3" fill="white" fill-rule="nonzero" d="m1.443677,31.424732c0,-16.458 13.38897,-29.848021 29.845969,-29.848021l623.622402,0c16.45697,0 29.846985,13.39002 29.846985,29.848021l0,423.779095c0,16.457001 -13.390015,29.846008 -29.846985,29.846008l-623.622402,0c-16.456999,0 -29.845969,-13.389008 -29.845969,-29.846008l0,-423.779095z"/>
    </g>
    <g transform="rotate(180 343.102 243.312)" id="svg_4">
     <path id="svg_5" fill="rgb(154,154,154)" fill-rule="nonzero" d="m686.26001,455.203003l0,-423.779305c0,-17.285999 -14.062012,-31.348018 -31.346985,-31.348018l-623.622425,0c-17.284,0 -31.34597,14.062019 -31.34597,31.348018l0,423.779305c0,17.283997 14.061969,31.346008 31.34597,31.346008l623.622425,0c17.284973,0 31.346985,-14.062012 31.346985,-31.346008m-3,0c0,15.653992 -12.69104,28.346008 -28.346985,28.346008l-623.622425,0c-15.655001,0 -28.34597,-12.692017 -28.34597,-28.346008l0,-423.779305c0,-15.655998 12.690969,-28.348019 28.34597,-28.348019l623.622425,0c15.655945,0 28.346985,12.69202 28.346985,28.348019"/>
    </g>
    <g transform="rotate(180 32.1246 243.181)" id="svg_6">
     <path id="svg_7" fill="white" fill-rule="nonzero" stroke-width="1.52px" stroke="rgb(154,154,154)" d="m32.124634,247.740677c-2.518005,0 -4.559998,-2.041 -4.559998,-4.559006c0,-2.518997 2.041992,-4.559998 4.559998,-4.559998c2.518982,0 4.559998,2.041 4.559998,4.559998c0,2.518005 -2.041016,4.559006 -4.559998,4.559006"/>
    </g>
    <g transform="rotate(180 655.278 242.98)" id="svg_8">
     <path id="svg_9" fill="white" fill-rule="nonzero" stroke-width="1.52px" stroke="rgb(154,154,154)" d="m655.278015,258.410706c-8.522949,0 -15.430969,-6.90802 -15.430969,-15.430008c0,-8.52301 6.90802,-15.431 15.430969,-15.431c8.522034,0 15.43103,6.90799 15.43103,15.431c0,8.521988 -6.908997,15.430008 -15.43103,15.430008"/>
    </g>
    <g transform="rotate(180 655.278 242.98)" id="svg_10">
     <path id="svg_11" fill="none" stroke-width="0.82px" stroke="rgb(154,154,154)" d="m651.775024,248.816711c-1.287964,0 -2.333984,-1.044998 -2.333984,-2.334l0,-7.003998c0,-1.289993 1.046021,-2.335999 2.333984,-2.335999l7.004028,0c1.289978,0 2.335999,1.046005 2.335999,2.335999l0,7.003998c0,1.289001 -1.046021,2.334 -2.335999,2.334l-7.004028,0z"/>
    </g>
    <g transform="rotate(180 342.945 243.55)" id="svg_12">
     <path id="svg_13" fill="white" fill-rule="nonzero" d="m63.446655,456.549988c-1.564995,0 -2.834991,-1.27002 -2.834991,-2.834015l0,-420.331299c0,-1.564999 1.269997,-2.834999 2.834991,-2.834999l558.997375,0c1.565002,0 2.834045,1.27 2.834045,2.834999l0,420.331299c0,1.563995 -1.269043,2.834015 -2.834045,2.834015l-558.997375,0z"/>
    </g>
    <g transform="rotate(180 342.945 243.55)" id="svg_14">
     <path id="svg_15" fill="none" stroke-width="2px" stroke="rgb(154,154,154)" d="m63.446655,456.549988c-1.564995,0 -2.834991,-1.27002 -2.834991,-2.834015l0,-420.331299c0,-1.564999 1.269997,-2.834999 2.834991,-2.834999l558.997375,0c1.565002,0 2.834045,1.27 2.834045,2.834999l0,420.331299c0,1.563995 -1.269043,2.834015 -2.834045,2.834015l-558.997375,0z"/>
    </g>
   </g>
  </g>
 </g>
</svg>