<?xml version="1.0" standalone="no"?><!DOCTYPE svg PUBLIC "-//W3C//DTD SVG 1.1//EN" "http://www.w3.org/Graphics/SVG/1.1/DTD/svg11.dtd"><svg width="100%" height="100%" viewBox="0 0 688 488" version="1.1" xmlns="http://www.w3.org/2000/svg" xmlns:xlink="http://www.w3.org/1999/xlink" xml:space="preserve" style="fill-rule:evenodd;clip-rule:evenodd;stroke-linejoin:round;stroke-miterlimit:1.41421;"><g id="Layer1"><path d="M653.172,1.22395c19.4264,0.00925199 33.7511,15.2954 33.7415,35.4523l-0.0124407,26.1218l-0.17284,362.913l-0.0124267,26.0924c-0.0095999,20.157 -14.3488,35.4294 -33.7752,35.4202l-618.483,-0.294557c-19.4264,-0.00925199 -33.7511,-15.2954 -33.7415,-35.4523l0.197708,-415.127c0.0095999,-20.157 14.3488,-35.4294 33.7752,-35.4202l618.483,0.294557Z" style="fill:#231f20;fill-rule:nonzero;"/><path d="M5.69967,36.7045l-0.0125806,26.4156l-0.17235,361.885l-0.0124407,26.1218c-0.00405827,8.52116 2.93138,16.3385 8.30316,21.9827c5.37176,5.67354 12.8441,8.79173 21.0178,8.79562l617.783,0.294224c8.17366,0.00389277 15.649,-3.10718 21.0262,-8.7756c5.34916,-5.63905 8.32003,-13.4536 8.32409,-21.9748l0.197358,-414.393c0.00405827,-8.52116 -2.93138,-16.3385 -8.30316,-21.9827c-5.37176,-5.67354 -12.8441,-8.79173 -21.0178,-8.79562l-617.783,-0.294224c-8.17366,-0.00389277 -15.649,3.10718 -21.0262,8.7756c-5.34914,5.60967 -8.32002,13.4242 -8.32408,21.9454l2.57572e-14,-5.68434e-14Z" style="fill:#010101;fill-rule:nonzero;"/><path d="M616.733,458.734c-0.00013994,0.293833 -0.252194,0.558163 -0.532114,0.55803l-544.976,-0.259549c-0.27992,-0.000133314 -0.531722,-0.264703 -0.531582,-0.558536l0.204327,-429.026c0.000153934,-0.323216 0.252194,-0.558163 0.532114,-0.55803l544.948,0.259536c0.307912,0.000146645 0.531722,0.264703 0.531582,0.558536l-0.204327,429.026l0.027992,1.33314e-05Z" style="fill:#fff;"/><path d="M71.4284,29.4193l544.976,0.259549l-0.204341,429.055l-544.976,-0.259549l0.204341,-429.055M70.3647,29.4188l-0.204341,429.055c-0.000293874,0.61705 0.475332,1.11679 1.06316,1.11707l544.976,0.259549c0.587832,0.000279959 1.06393,-0.49901 1.06423,-1.11606l0.204327,-429.026c0.000293874,-0.61705 -0.475332,-1.11679 -1.06316,-1.11707l-544.976,-0.259549c-0.587818,-0.0296633 -1.06392,0.469626 -1.06421,1.08668l-2.84217e-14,-5.68434e-14Z" style="fill:#151517;fill-rule:nonzero;"/><g><path d="M649.622,226.357c9.40531,0.00447935 17.0153,8.00037 17.0106,17.8732c-0.00470199,9.87279 -7.62233,17.8614 -17.0276,17.8569c-9.40531,-0.00447935 -17.0153,-8.00037 -17.0106,-17.8732c0.00470199,-9.87279 7.62233,-17.8614 17.0276,-17.8569Z" style="fill:#231f20;fill-rule:nonzero;"/><path d="M645.36,240.694c0.000475797,-0.999033 0.784644,-1.82139 1.73637,-1.82094l6.71808,0.00319954c0.951728,0.000453268 1.73511,0.823559 1.73464,1.82259l-0.00335857,7.05199c-0.000475797,0.999033 -0.784644,1.82139 -1.73637,1.82094l-6.71808,-0.00319954c-0.951728,-0.000453268 -1.73511,-0.823559 -1.73464,-1.82259l0.00335857,-7.05199M644.241,240.693l-0.00335857,7.05199c-0.000797659,1.67485 1.28619,3.02709 2.88173,3.02785l6.71808,0.00319954c1.59554,0.00075989 2.88382,-1.35026 2.88462,-3.02511l0.00335857,-7.05199c0.000797659,-1.67485 -1.28619,-3.02709 -2.88173,-3.02785l-6.71808,-0.00319954c-1.59554,-0.00075989 -2.88382,1.35026 -2.88462,3.02511Z" style="fill:#fff;fill-opacity:0.498039;fill-rule:nonzero;"/></g><g><path d="M36.0283,243.929c0.0011755,-2.4682 1.9056,-4.49474 4.28492,-4.49361c2.35133,0.00111984 4.28182,2.0001 4.28063,4.49769c-0.00118949,2.49758 -1.9056,4.49474 -4.28492,4.49361c-2.37932,-0.00113317 -4.28181,-2.02949 -4.28063,-4.49769l-7.10543e-15,0Z" style="fill:#424143;"/><path d="M38.3237,243.931c0.000573755,-1.20472 0.924772,-2.17392 2.07244,-2.17338c1.14767,0.000546587 2.07095,0.970636 2.07037,2.17535c-0.000573755,1.20472 -0.924772,2.17392 -2.07244,2.17338c-1.14767,-0.000546587 -2.07095,-0.970636 -2.07037,-2.17535Z" style="fill:#818285;"/></g></g></svg>