<?xml version="1.0" standalone="no"?><!DOCTYPE svg PUBLIC "-//W3C//DTD SVG 1.1//EN" "http://www.w3.org/Graphics/SVG/1.1/DTD/svg11.dtd"><svg width="100%" height="100%" viewBox="0 0 2480 1506" version="1.1" xmlns="http://www.w3.org/2000/svg" xmlns:xlink="http://www.w3.org/1999/xlink" xml:space="preserve" style="fill-rule:evenodd;clip-rule:evenodd;stroke-linejoin:round;stroke-miterlimit:1.41421;"><g id="Layer1"><path d="M0.167789,1395.38l0.166646,-1284c0.00795593,-61.3 49.7144,-110.994 111.014,-110.986l2258,0.293058c61.3,0.00795593 110.994,49.7144 110.986,111.014l-0.166646,1284c-0.00795593,61.3 -49.7144,110.994 -111.014,110.986l-2258,-0.293058c-61.3,-0.00795593 -110.994,-49.7144 -110.986,-111.014Z" style="fill:#242424;"/><path d="M0.334436,111.377l-0.166646,1284c-0.00795593,61.3 49.6856,111.006 110.986,111.014l2258,0.293058c61.3,0.00795593 111.006,-49.6856 111.014,-110.986l0.166646,-1284c0.00795593,-61.3 -49.6856,-111.006 -110.986,-111.014l-2258,-0.293058c-61.3,-0.00795593 -111.006,49.6856 -111.014,110.986ZM2369.35,9.68462c56.3,0.00730699 101.994,45.7132 101.987,102.013l-0.166646,1284c-0.00730699,56.3 -45.7132,101.994 -102.013,101.987l-2258,-0.293058c-56.3,-0.00730699 -101.994,-45.7132 -101.987,-102.013l0.166646,-1284c0.00730699,-56.3 45.7132,-101.994 102.013,-101.987l2258,0.293058Z" style="fill:url(#tag1);"/><path d="M2473.83,111.698l-0.166646,1284c-0.00747572,57.6 -46.9136,104.494 -104.514,104.486l-2258,-0.293058c-57.6,-0.00747572 -104.494,-46.9136 -104.486,-104.514l0.166646,-1284c0.00747572,-57.6 46.9136,-104.494 104.514,-104.486l2258,0.293058c57.6,0.00747572 104.494,46.9136 104.486,104.514ZM11.6678,1395.38c-0.00712529,54.9 44.5871,99.5058 99.4871,99.5129l2258,0.293058c54.9,0.00712529 99.5058,-44.5871 99.5129,-99.4871l0.166646,-1284c0.00712529,-54.9 -44.5871,-99.5058 -99.4871,-99.5129l-2258,-0.293058c-54.9,-0.00712529 -99.5058,44.5871 -99.5129,99.4871l-0.166646,1284Z" style="fill:url(#tag2);fill-rule:nonzero;"/><path d="M13.1678,1395.38l0.166646,-1284c0.00702146,-54.1 43.9127,-97.9943 98.0127,-97.9873l2258,0.293058c54.1,0.00702146 97.9943,43.9127 97.9873,98.0127l-0.166646,1284c-0.00702146,54.1 -43.9127,97.9943 -98.0127,97.9873l-2258,-0.293058c-54.1,-0.00702146 -97.9943,-43.9127 -97.9873,-98.0127Z" style="fill:url(#tag3);"/><path d="M280.173,1353.41l0.155744,-1200l1920,0.249191l-0.155744,1200l-1920,-0.249191Z" style="fill:#fff;"/><path d="M2314.55,753.678c0.00142765,-11 9.0026,-19.9988 20.0026,-19.9974c11,0.00142765 19.9988,9.0026 19.9974,20.0026c-0.00142765,11 -9.0026,19.9988 -20.0026,19.9974c-11,-0.00142765 -19.9988,-9.0026 -19.9974,-20.0026Z" style="fill:url(#tag4);"/><g><path d="M177.811,292.4c0.00150553,-11.6 9.40273,-20.9988 21.0027,-20.9973c11.6,0.00150553 20.9988,9.40273 20.9973,21.0027c-0.00150553,11.6 -9.40273,20.9988 -21.0027,20.9973c-11.6,-0.00150553 -20.9988,-9.40273 -20.9973,-21.0027Z" style="fill:#fff;fill-opacity:0.2;"/><path d="M176.111,292.4c0.00150553,-11.6 9.40273,-20.9988 21.0027,-20.9973c11.6,0.00150553 20.9988,9.40273 20.9973,21.0027c-0.00150553,11.6 -9.40273,20.9988 -21.0027,20.9973c-11.6,-0.00150553 -20.9988,-9.40273 -20.9973,-21.0027Z" style="fill:url(#tag5);"/></g></g><defs><linearGradient id="tag1" x1="0" y1="0" x2="1" y2="0" gradientUnits="userSpaceOnUse" gradientTransform="matrix(-2480,-0.321871,0.321871,-2480,2480.25,753.699)"><stop offset="0%" style="stop-color:#010101;stop-opacity:1"/><stop offset="100%" style="stop-color:#231f20;stop-opacity:1"/></linearGradient><linearGradient id="tag2" x1="0" y1="0" x2="1" y2="0" gradientUnits="userSpaceOnUse" gradientTransform="matrix(2500.34,0.32451,-0.32451,2500.34,-2.38889,753.377)"><stop offset="0%" style="stop-color:#010101;stop-opacity:1"/><stop offset="12%" style="stop-color:#231f20;stop-opacity:1"/><stop offset="41%" style="stop-color:#424143;stop-opacity:1"/><stop offset="59%" style="stop-color:#231f20;stop-opacity:1"/><stop offset="73%" style="stop-color:#595a5c;stop-opacity:1"/><stop offset="85%" style="stop-color:#231f20;stop-opacity:1"/><stop offset="99%" style="stop-color:#818285;stop-opacity:1"/><stop offset="100%" style="stop-color:#818285;stop-opacity:1"/></linearGradient><linearGradient id="tag3" x1="0" y1="0" x2="1" y2="0" gradientUnits="userSpaceOnUse" gradientTransform="matrix(2388.85,0.310041,-0.310041,2388.85,31.3093,753.381)"><stop offset="0%" style="stop-color:#010101;stop-opacity:1"/><stop offset="100%" style="stop-color:#231f20;stop-opacity:1"/></linearGradient><radialGradient id="tag4" cx="0" cy="0" r="1" gradientUnits="userSpaceOnUse" gradientTransform="matrix(0.00259574,-20,20,0.00259574,2334.54,753.68)"><stop offset="0%" style="stop-color:#fff;stop-opacity:0.5"/><stop offset="100%" style="stop-color:#fff;stop-opacity:0"/></radialGradient><radialGradient id="tag5" cx="0" cy="0" r="1" gradientUnits="userSpaceOnUse" gradientTransform="matrix(0.00272552,-21,21,0.00272552,197.084,292.403)"><stop offset="0%" style="stop-color:#1e1e1e;stop-opacity:1"/><stop offset="86%" style="stop-color:#1e1e1e;stop-opacity:1"/><stop offset="100%" style="stop-color:#010101;stop-opacity:1"/></radialGradient></defs></svg>