<?xml version="1.0" standalone="no"?><!DOCTYPE svg PUBLIC "-//W3C//DTD SVG 1.1//EN" "http://www.w3.org/Graphics/SVG/1.1/DTD/svg11.dtd"><svg width="100%" height="100%" viewBox="0 0 488 688" version="1.1" xmlns="http://www.w3.org/2000/svg" xmlns:xlink="http://www.w3.org/1999/xlink" xml:space="preserve" style="fill-rule:evenodd;clip-rule:evenodd;stroke-linejoin:round;stroke-miterlimit:1.41421;"><g id="Layer1"><path d="M486.982,653.015c0,19.4264 -15.2793,33.7584 -35.4363,33.7584l-26.1218,0l-362.913,0l-26.0924,0c-20.157,0 -35.4363,-14.3319 -35.4363,-33.7584l-7.54952e-15,-618.483c-2.22045e-16,-19.4264 15.2793,-33.7584 35.4363,-33.7584l415.127,4.77396e-15c20.157,2.22045e-16 35.4363,14.3319 35.4363,33.7584l0,618.483Z" style="fill:#231f20;fill-rule:nonzero;"/><path d="M451.193,5.55936l-26.4156,0l-361.885,-4.44089e-15l-26.1218,-8.88178e-16c-8.52116,0 -16.3371,2.93916 -21.9787,8.31362c-5.67098,5.37446 -8.78561,12.8483 -8.78561,21.022l7.99361e-15,617.783c0,8.17366 3.11463,15.6475 8.78561,21.022c5.6416,5.34647 13.4576,8.31362 21.9787,8.31362l414.393,0c8.52116,0 16.3371,-2.93916 21.9787,-8.31362c5.67098,-5.37446 8.78561,-12.8483 8.78561,-21.022l0,-617.783c0,-8.17366 -3.11463,-15.6475 -8.78561,-21.022c-5.61221,-5.34647 -13.4282,-8.31362 -21.9493,-8.31362l5.68434e-14,2.57572e-14Z" style="fill:#010101;fill-rule:nonzero;"/><path d="M29.4549,616.793c-0.293833,0 -0.558283,-0.251928 -0.558283,-0.531848l-7.10543e-15,-544.976c0,-0.27992 0.26445,-0.531848 0.558283,-0.531848l429.026,0c0.323216,0 0.558283,0.251928 0.558283,0.531848l0,544.948c0,0.307912 -0.26445,0.531848 -0.558283,0.531848l-429.026,0l3.55271e-15,0.027992Z" style="fill:#fff;"/><path d="M458.509,71.2846l0,544.976l-429.055,0l-7.10543e-15,-544.976l429.055,0M458.509,70.2209l-429.055,0c-0.61705,0 -1.11657,0.475864 -1.11657,1.0637l7.10543e-15,544.976c0,0.587832 0.499516,1.0637 1.11657,1.0637l429.026,0c0.61705,0 1.11657,-0.475864 1.11657,-1.0637l0,-544.976c0.0293833,-0.587832 -0.470133,-1.0637 -1.08718,-1.0637l5.68434e-14,-2.84217e-14Z" style="fill:#151517;fill-rule:nonzero;"/><g><path d="M261.847,649.572c0,9.40531 -7.99226,17.0191 -17.8651,17.0191c-9.87279,0 -17.8651,-7.61382 -17.8651,-17.0191c0,-9.40531 7.99226,-17.0191 17.8651,-17.0191c9.87279,0 17.8651,7.61382 17.8651,17.0191Z" style="fill:#231f20;fill-rule:nonzero;"/><path d="M247.508,645.317c0.999033,0 1.82177,0.783776 1.82177,1.7355l0,6.71808c0,0.951728 -0.822733,1.7355 -1.82177,1.7355l-7.052,0c-0.999033,0 -1.82177,-0.783776 -1.82177,-1.7355l0,-6.71808c0,-0.951728 0.822733,-1.7355 1.82177,-1.7355l7.052,0M247.508,644.197l-7.052,0c-1.67485,0 -3.02648,1.28763 -3.02648,2.88318l0,6.71808c0,1.59554 1.35163,2.88318 3.02648,2.88318l7.052,0c1.67485,0 3.02648,-1.28763 3.02648,-2.88318l0,-6.71808c0,-1.59554 -1.35163,-2.88318 -3.02648,-2.88318Z" style="fill:#fff;fill-opacity:0.498039;fill-rule:nonzero;"/></g><g><path d="M243.982,35.9867c2.4682,0 4.49565,1.90346 4.49565,4.28278c0,2.35133 -1.99807,4.28278 -4.49565,4.28278c-2.49758,0 -4.49565,-1.90346 -4.49565,-4.28278c0,-2.37932 2.02745,-4.28278 4.49565,-4.28278l0,-7.10543e-15Z" style="fill:#424143;"/><path d="M243.982,38.282c1.20472,0 2.17437,0.923736 2.17437,2.07141c0,1.14767 -0.969649,2.07141 -2.17437,2.07141c-1.20472,0 -2.17437,-0.923736 -2.17437,-2.07141c0,-1.14767 0.969649,-2.07141 2.17437,-2.07141Z" style="fill:#818285;"/></g></g></svg>