<?xml version="1.0" standalone="no"?>
<!DOCTYPE svg PUBLIC "-//W3C//DTD SVG 1.1//EN" "http://www.w3.org/Graphics/SVG/1.1/DTD/svg11.dtd">
<svg width="490px" height="690px" version="1.1" xmlns="http://www.w3.org/2000/svg" xmlns:xlink="http://www.w3.org/1999/xlink" xml:space="preserve" style="fill-rule:evenodd;clip-rule:evenodd;stroke-miterlimit:1.41421;">
    <g>
        <g id="Layer1">
            <g>
                <path d="M33.2464,686.423C16.7884,686.423 3.39838,673.034 3.39838,656.577L3.39838,32.9547C3.39838,16.4977 16.7884,3.10774 33.2464,3.10774L457.025,3.10774C473.482,3.10774 486.871,16.4977 486.871,32.9547L486.871,656.577C486.871,673.034 473.482,686.423 457.025,686.423Z" style="fill:white;fill-rule:nonzero;"/>
            </g>
            <g>
                <path d="M457.026,1.60874L33.2472,1.60874C15.9612,1.60874 1.89918,15.6707 1.89918,32.9557L1.89918,656.578C1.89918,673.862 15.9612,687.924 33.2472,687.924L457.026,687.924C474.31,687.924 488.372,673.862 488.372,656.578L488.372,32.9557C488.372,15.6707 474.31,1.60874 457.026,1.60874M457.026,4.60874C472.68,4.60874 485.372,17.2997 485.372,32.9557L485.372,656.578C485.372,672.233 472.68,684.924 457.026,684.924L33.2472,684.924C17.5912,684.924 4.89918,672.233 4.89918,656.578L4.89918,32.9557C4.89918,17.2997 17.5912,4.60874 33.2472,4.60874" style="fill:rgb(154,154,154);fill-rule:nonzero;"/>
            </g>
            <g>
                <path d="M249.826,33.7887C249.826,36.3067 247.785,38.3487 245.267,38.3487C242.748,38.3487 240.707,36.3067 240.707,33.7887C240.707,31.2697 242.748,29.2287 245.267,29.2287C247.785,29.2287 249.826,31.2697 249.826,33.7887" style="fill:white;fill-rule:nonzero;stroke-width:1.52px;stroke:rgb(154,154,154);"/>
            </g>
            <g>
                <path d="M260.898,656.942C260.898,665.465 253.99,672.373 245.468,672.373C236.945,672.373 230.037,665.465 230.037,656.942C230.037,648.42 236.945,641.511 245.468,641.511C253.99,641.511 260.898,648.42 260.898,656.942" style="fill:white;fill-rule:nonzero;stroke-width:1.52px;stroke:rgb(154,154,154);"/>
            </g>
            <g>
                <path d="M251.305,660.445C251.305,661.733 250.26,662.779 248.971,662.779L241.967,662.779C240.677,662.779 239.631,661.733 239.631,660.445L239.631,653.441C239.631,652.151 240.677,651.105 241.967,651.105L248.971,651.105C250.26,651.105 251.305,652.151 251.305,653.441Z" style="fill:none;stroke-width:0.82px;stroke:rgb(154,154,154);"/>
            </g>
            <g>
                <path d="M457.898,624.107C457.898,625.672 456.628,626.942 455.064,626.942L34.7332,626.942C33.1682,626.942 31.8982,625.672 31.8982,624.107L31.8982,65.1097C31.8982,63.5447 33.1682,62.2757 34.7332,62.2757L455.064,62.2757C456.628,62.2757 457.898,63.5447 457.898,65.1097Z" style="fill:white;fill-rule:nonzero;"/>
            </g>
            <g>
                <path d="M457.898,624.107C457.898,625.672 456.628,626.942 455.064,626.942L34.7332,626.942C33.1682,626.942 31.8982,625.672 31.8982,624.107L31.8982,65.1097C31.8982,63.5447 33.1682,62.2757 34.7332,62.2757L455.064,62.2757C456.628,62.2757 457.898,63.5447 457.898,65.1097Z" style="fill:none;stroke-width:2px;stroke:rgb(154,154,154);"/>
            </g>
        </g>
    </g>
</svg>