<?xml version="1.0" standalone="no"?><!DOCTYPE svg PUBLIC "-//W3C//DTD SVG 1.1//EN" "http://www.w3.org/Graphics/SVG/1.1/DTD/svg11.dtd"><svg width="100%" height="100%" viewBox="0 0 1506 2480" version="1.1" xmlns="http://www.w3.org/2000/svg" xmlns:xlink="http://www.w3.org/1999/xlink" xml:space="preserve" style="fill-rule:evenodd;clip-rule:evenodd;stroke-linejoin:round;stroke-miterlimit:1.41421;"><g><path d="M111,0l1284,0c61.3,0 111,49.7 111,111l0,2258c0,61.3 -49.7,111 -111,111l-1284,0c-61.3,0 -111,-49.7 -111,-111l0,-2258c0,-61.3 49.7,-111 111,-111Z" style="fill:#242424;"/><path d="M1395,0l-1284,0c-61.3,0 -111,49.7 -111,111l0,2258c0,61.3 49.7,111 111,111l1284,0c61.3,0 111,-49.7 111,-111l0,-2258c0,-61.3 -49.7,-111 -111,-111ZM1497,2369c0,56.3 -45.7,102 -102,102l-1284,0c-56.3,0 -102,-45.7 -102,-102l0,-2258c0,-56.3 45.7,-102 102,-102l1284,0c56.3,0 102,45.7 102,102l0,2258Z" style="fill:url(#tag1);"/><path d="M1395,2473.5l-1284,0c-57.6,0 -104.5,-46.9 -104.5,-104.5l0,-2258c0,-57.6 46.9,-104.5 104.5,-104.5l1284,0c57.6,0 104.5,46.9 104.5,104.5l0,2258c0,57.6 -46.9,104.5 -104.5,104.5ZM111,11.5c-54.9,0 -99.5,44.6 -99.5,99.5l0,2258c0,54.9 44.6,99.5 99.5,99.5l1284,0c54.9,0 99.5,-44.6 99.5,-99.5l0,-2258c0,-54.9 -44.6,-99.5 -99.5,-99.5l-1284,0Z" style="fill:url(#tag2);fill-rule:nonzero;"/><path d="M111,13l1284,0c54.1,0 98,43.9 98,98l0,2258c0,54.1 -43.9,98 -98,98l-1284,0c-54.1,0 -98,-43.9 -98,-98l0,-2258c0,-54.1 43.9,-98 98,-98Z" style="fill:url(#tag3);"/><rect x="153" y="280" width="1200" height="1920" style="fill:#fff;"/><path d="M753,2314.3c11,0 20,9 20,20c0,11 -9,20 -20,20c-11,0 -20,-9 -20,-20c0,-11 9,-20 20,-20Z" style="fill:url(#tag4);"/><g><path d="M1214,177.5c11.6,0 21,9.4 21,21c0,11.6 -9.4,21 -21,21c-11.6,0 -21,-9.4 -21,-21c0,-11.6 9.4,-21 21,-21Z" style="fill:#fff;fill-opacity:0.2;"/><path d="M1214,175.8c11.6,0 21,9.4 21,21c0,11.6 -9.4,21 -21,21c-11.6,0 -21,-9.4 -21,-21c0,-11.6 9.4,-21 21,-21Z" style="fill:url(#tag5);"/></g></g><defs><linearGradient id="tag1" x1="0" y1="0" x2="1" y2="0" gradientUnits="userSpaceOnUse" gradientTransform="matrix(1.51856e-13,-2480,2480,1.51856e-13,753,2480)"><stop offset="0%" style="stop-color:#010101;stop-opacity:1"/><stop offset="100%" style="stop-color:#231f20;stop-opacity:1"/></linearGradient><linearGradient id="tag2" x1="0" y1="0" x2="1" y2="0" gradientUnits="userSpaceOnUse" gradientTransform="matrix(1.53101e-13,2500.34,-2500.34,1.53101e-13,753,-2.64)"><stop offset="0%" style="stop-color:#010101;stop-opacity:1"/><stop offset="12%" style="stop-color:#231f20;stop-opacity:1"/><stop offset="41%" style="stop-color:#424143;stop-opacity:1"/><stop offset="59%" style="stop-color:#231f20;stop-opacity:1"/><stop offset="73%" style="stop-color:#595a5c;stop-opacity:1"/><stop offset="85%" style="stop-color:#231f20;stop-opacity:1"/><stop offset="99%" style="stop-color:#818285;stop-opacity:1"/><stop offset="100%" style="stop-color:#818285;stop-opacity:1"/></linearGradient><linearGradient id="tag3" x1="0" y1="0" x2="1" y2="0" gradientUnits="userSpaceOnUse" gradientTransform="matrix(1.46275e-13,2388.85,-2388.85,1.46275e-13,753,31.0582)"><stop offset="0%" style="stop-color:#010101;stop-opacity:1"/><stop offset="100%" style="stop-color:#231f20;stop-opacity:1"/></linearGradient><radialGradient id="tag4" cx="0" cy="0" r="1" gradientUnits="userSpaceOnUse" gradientTransform="matrix(20,0,0,20,753,2334.29)"><stop offset="0%" style="stop-color:#fff;stop-opacity:0.5"/><stop offset="100%" style="stop-color:#fff;stop-opacity:0"/></radialGradient><radialGradient id="tag5" cx="0" cy="0" r="1" gradientUnits="userSpaceOnUse" gradientTransform="matrix(21,0,0,21,1214,196.773)"><stop offset="0%" style="stop-color:#1e1e1e;stop-opacity:1"/><stop offset="86%" style="stop-color:#1e1e1e;stop-opacity:1"/><stop offset="100%" style="stop-color:#010101;stop-opacity:1"/></radialGradient></defs></svg>