<?xml version="1.0" standalone="no"?><!DOCTYPE svg PUBLIC "-//W3C//DTD SVG 1.1//EN" "http://www.w3.org/Graphics/SVG/1.1/DTD/svg11.dtd"><svg width="100%" height="100%" viewBox="0 0 1605 820" version="1.1" xmlns="http://www.w3.org/2000/svg" xmlns:xlink="http://www.w3.org/1999/xlink" xml:space="preserve" style="fill-rule:evenodd;clip-rule:evenodd;stroke-linejoin:round;stroke-miterlimit:1.41421;"><g id="Layer1"><g id="Layer11"><g id="IPHONE_x5F_5S_x5F_BLACK_x5F_FRONT"><g><g><g><path d="M0.816135,142.031l0.0709891,120.897l3.00975,5.56656l6.01297,-0.00353074l-0.076711,-130.641l-6.01297,0.00353074l-3.00403,4.17801Z" style="fill:#808184;"/><path d="M0.887124,262.928l-0.0709263,-120.79l3.00403,-4.17801l0.076711,130.641l-3.00982,-5.67364Z" style="fill:#a6a8ac;"/></g><g><path d="M229.706,818.341c1.30363,1.39132 2.20614,2.35453 3.00837,3.21073l67.1448,-0.0394266c1.00153,-1.07142 1.7026,-1.82141 3.0046,-3.21426l-0.00377267,-6.42499l-73.1577,0.0429573l0.00377267,6.42499Z" style="fill:#808184;"/><path d="M302.864,818.298c-1.30199,1.39285 -2.00306,2.14284 -3.0046,3.21426l-67.1448,0.0394266c-0.802232,-0.856194 -1.70474,-1.81941 -3.00837,-3.21073c4.30929,-0.00253036 71.0532,-0.0417216 73.1577,-0.0429573Z" style="fill:#a6a8ac;fill-rule:nonzero;"/><path d="M381.032,818.252c1.30363,1.39132 2.20614,2.35453 3.00837,3.21073l50.108,-0.0294228c1.00153,-1.07142 1.7026,-1.82141 3.0046,-3.21426l-0.00377267,-6.42499l-56.121,0.0329536l0.00377267,6.42499Z" style="fill:#808184;"/><path d="M437.153,818.219c-1.30199,1.39285 -2.00306,2.14284 -3.0046,3.21426l-50.108,0.0294228c-0.802232,-0.856194 -1.70474,-1.81941 -3.00837,-3.21073c4.30929,-0.00253036 54.0165,-0.0317178 56.121,-0.0329536Z" style="fill:#a6a8ac;fill-rule:nonzero;"/><path d="M491.27,818.188c1.30363,1.39132 2.20614,2.35453 3.00837,3.21073l50.108,-0.0294228c1.00153,-1.07142 1.7026,-1.82141 3.0046,-3.21426l-0.00377267,-6.42499l-56.121,0.0329536l0.00377267,6.42499Z" style="fill:#808184;"/><path d="M547.391,818.155c-1.30199,1.39285 -2.00306,2.14284 -3.0046,3.21426l-50.108,0.0294228c-0.802232,-0.856194 -1.70474,-1.81941 -3.00837,-3.21073c4.40951,-0.00258921 54.0165,-0.0317178 56.121,-0.0329536Z" style="fill:#a6a8ac;fill-rule:nonzero;"/></g><path d="M41.245,42.4201c-21.2325,22.7141 -32.8399,52.8113 -32.821,84.9362l0.333127,567.326c0.0188005,32.0179 11.6616,62.2085 32.9207,84.8976c21.2591,22.5821 49.4272,35.0943 79.492,35.0766l1370.96,-0.805008c29.9646,-0.0175948 58.2182,-12.5629 79.3505,-35.1699c21.2325,-22.7141 32.8399,-52.8113 32.821,-84.9362l-0.333064,-567.219c-0.0188005,-32.0179 -11.7618,-62.2084 -32.9207,-84.8976c-21.2591,-22.6892 -49.4272,-35.0943 -79.3918,-35.0767l-1370.96,0.805008c-30.0649,-0.0894295 -58.2183,12.4558 -79.4508,35.0629Z" style="fill:#a6a8ac;fill-rule:nonzero;"/><g><path d="M17.4434,127.351l0.333127,567.326c0.0357775,60.9303 46.3647,110.376 103.287,110.342l1370.96,-0.805008c56.9227,-0.0334243 103.193,-49.6401 103.158,-110.463l-0.333064,-567.219c-0.0357775,-60.9303 -46.3647,-110.376 -103.287,-110.342l-1370.96,0.805008c-56.8226,-0.0737177 -103.194,49.533 -103.158,110.356Z" style="fill:#231f20;fill-rule:nonzero;"/><path d="M1491.56,19.2952c55.3193,-0.0324828 100.244,47.9144 100.279,107.131l0.333127,567.326c0.0347715,59.217 -44.8339,107.217 -100.153,107.249l-1370.96,0.805008c-55.3193,0.0324828 -100.244,-47.9144 -100.279,-107.131l-0.333064,-567.219c-0.0347715,-59.217 44.8339,-107.217 100.153,-107.249l1370.96,-0.805008l-6.28779e-05,-0.107083Z" style="fill:#030303;fill-rule:nonzero;"/></g><path d="M239.189,753.55l-0.402419,-685.332l1138.45,-0.668487l0.402419,685.332l-1138.45,0.668487Z" style="fill:#fff;"/><path d="M238.786,68.2183l1138.45,-0.668487l0.402419,685.332l-1138.45,0.668487l-0.402419,-685.332M233.775,68.2212l0.402419,685.332c0.00176058,2.99833 2.2079,5.35286 5.01395,5.35121l1138.45,-0.668487c2.80605,-0.00164768 5.00942,-2.35877 5.00766,-5.3571l-0.402419,-685.332c-0.00176058,-2.99833 -2.2079,-5.35286 -5.01395,-5.35121l-1138.45,0.668487c-2.80605,0.00164768 -5.00942,2.35877 -5.00766,5.3571Z" style="fill:#231f20;fill-opacity:0.5;fill-rule:nonzero;"/><g><path d="M170.496,335.966c8.31794,-0.00488419 15.0366,7.16574 15.0418,16.0536l0.0691657,117.791c0.00521887,8.8879 -6.70505,16.0664 -15.023,16.0713c-8.31794,0.00488419 -15.0366,-7.16574 -15.0418,-16.0536l-0.0691657,-117.791c-0.00521887,-8.8879 6.70505,-16.0664 15.023,-16.0713Z" style="fill:#231f20;fill-rule:nonzero;"/><path d="M162.488,352.033l0.0691657,117.791c0.00276663,4.71166 3.61281,8.56453 8.02232,8.56194c4.40951,-0.00258921 8.01502,-3.8597 8.01226,-8.57136l-0.0691657,-117.791c-0.00106892,-1.82041 -0.603372,-3.53339 -1.50613,-4.92494c-1.5045,-2.14078 -3.81035,-3.63859 -6.51618,-3.637c-4.40951,0.00258921 -8.01502,3.8597 -8.01226,8.57136Z" style="fill:#010101;fill-rule:nonzero;"/></g><g><path d="M86.5586,410.974c-0.00493116,-8.39794 6.36237,-15.2095 14.2218,-15.2142c7.85939,-0.00461494 14.2347,6.79952 14.2396,15.1975c0.00493116,8.39794 -6.36237,15.2095 -14.2218,15.2142c-7.85939,0.00461494 -14.2347,-6.79952 -14.2396,-15.1975Z" style="fill:#231f20;"/><path d="M94.6761,410.969c-0.00211832,-3.60756 2.73313,-6.53368 6.10935,-6.53566c3.37622,-0.00198247 6.1149,2.92092 6.11702,6.52848c0.00211832,3.60756 -2.73313,6.53368 -6.10935,6.53566c-3.37622,0.00198247 -6.1149,-2.92092 -6.11702,-6.52848Z" style="fill:#010101;"/><path d="M96.5802,410.968c-0.00145851,-2.4839 1.88183,-4.4986 4.20644,-4.49996c2.32461,-0.00136498 4.21026,2.01112 4.21172,4.49502c0.00145851,2.4839 -1.88183,4.4986 -4.20644,4.49996c-2.32461,0.00136498 -4.21026,-2.01112 -4.21172,-4.49502Z" style="fill:#231f20;"/><path d="M97.5824,410.967c-0.000625077,-1.06453 0.537287,-1.92781 1.20146,-1.9282c0.664174,-0.000389995 1.2031,0.862263 1.20372,1.92679c0.000625077,1.06453 -0.537287,1.92781 -1.20146,1.9282c-0.664174,0.000389995 -1.2031,-0.862263 -1.20372,-1.92679Z" style="fill:#fff;"/></g></g><g><path d="M146.717,801.792l0.00754535,12.85l12.0259,-0.00706148l-0.00754535,-12.85l-12.0259,0.00706148Z" style="fill:#131517;"/><path d="M146.251,7.23519l0.00754535,12.85l12.0259,-0.00706148l-0.00754535,-12.85l-12.0259,0.00706148Z" style="fill:#131517;"/><path d="M1455.54,801.024l0.00754535,12.85l12.0259,-0.00706148l-0.00754535,-12.85l-12.0259,0.00706148Z" style="fill:#131517;"/><path d="M1455.07,6.46666l0.00754535,12.85l12.0259,-0.00706148l-0.00754535,-12.85l-12.0259,0.00706148Z" style="fill:#131517;"/></g></g><path d="M1418.71,406.512c0.018554,31.5981 25.4762,57.1392 56.934,57.1207c31.4578,-0.0184716 56.8854,-25.5895 56.8669,-57.1876c-0.018554,-31.5981 -25.4762,-57.1392 -56.934,-57.1207c-31.4578,0.0184716 -56.8854,25.6711 -56.8669,57.1876ZM1526.01,406.531c0.0163966,27.9239 -22.5679,50.6355 -50.3678,50.6518c-27.7999,0.0163238 -50.4109,-22.6688 -50.4273,-50.5927c-0.0163966,-27.9239 22.5679,-50.6355 50.3678,-50.6518c27.7999,-0.0163238 50.4108,22.5871 50.4273,50.5927Z" style="fill:#231f20;"/></g></g></g></svg>