<?xml version="1.0" standalone="no"?>
<!DOCTYPE svg PUBLIC "-//W3C//DTD SVG 1.1//EN" "http://www.w3.org/Graphics/SVG/1.1/DTD/svg11.dtd">
<svg width="18px" height="12px" version="1.1" xmlns="http://www.w3.org/2000/svg" xmlns:xlink="http://www.w3.org/1999/xlink" xml:space="preserve" style="fill-rule:evenodd;clip-rule:evenodd;stroke-linejoin:round;stroke-miterlimit:1.41421;">
    <g>
        <g id="Layer1">
            <g>
                <path d="M0.202392,3.17374L17.7978,3.17374C17.9088,3.17374 17.9989,3.08372 17.9989,2.9727C17.9993,2.28437 17.9993,1.80925 17.9989,1.68544C17.9905,0.894225 17.8796,0.288064 16.567,0.278308C16.4396,0.277503 12.5555,0.277202 9.00086,0.277202C5.44599,0.277202 1.56174,0.277503 1.43328,0.278308C0.120774,0.288064 0.0107118,0.894325 0.00317332,1.68464C0.00136398,1.80835 0.00136398,2.27148 0.00136398,2.97259C0.00136398,3.08363 0.0914243,3.17374 0.202392,3.17374ZM0.405228,1.68947C0.411761,0.995201 0.455988,0.687947 1.4359,0.680604C1.56335,0.679801 5.4466,0.679499 9.00086,0.679499C12.555,0.679499 16.438,0.679801 16.5643,0.680604C17.5447,0.687947 17.5894,0.995302 17.5967,1.68836C17.5971,1.79819 17.5973,2.19314 17.5969,2.77155L0.403419,2.77155C0.403419,2.20249 0.403619,1.79879 0.405228,1.68947Z" style="fill:rgb(35,31,32);fill-rule:nonzero;"/>
            </g>
            <g>
                <path d="M17.9961,5.20899L17.9961,5.17591C17.9975,4.41363 17.9989,3.66221 17.9989,2.98365C17.9989,2.87268 17.9088,2.78261 17.7978,2.78261L0.202778,2.78261C0.149398,2.78261 0.0982316,2.80382 0.0605346,2.84151C0.0228376,2.8793 0.00162678,2.93048 0.00172733,2.98375C0.00212952,3.67226 0.00263208,4.43565 0.0040394,5.20878C0.00122476,7.62008 -0.00108731,9.89146 0.00212952,10.1804C0.00966885,10.9711 0.119644,11.5768 1.4324,11.5865C1.57415,11.5876 5.28756,11.5881 9.00076,11.5881C12.714,11.5881 16.4271,11.5876 16.5683,11.5865C17.8806,11.5767 17.9914,10.9712 18,10.1797C18.0016,9.89438 17.9998,7.61797 17.9961,5.20899ZM17.5978,10.1764C17.5904,10.8701 17.5458,11.1771 16.5652,11.1844C16.3536,11.186 1.64783,11.186 1.43542,11.1844C0.454997,11.1771 0.410865,10.8702 0.404231,10.1762C0.401014,9.88914 0.403225,7.61927 0.406142,5.20859C0.404934,4.50973 0.404331,3.81922 0.404031,3.18471L17.5967,3.18471C17.5966,3.80907 17.5953,4.48772 17.5941,5.17521L17.5941,5.20929C17.5978,7.61757 17.5996,9.89266 17.5978,10.1764Z" style="fill:rgb(35,31,32);fill-rule:nonzero;"/>
            </g>
        </g>
    </g>
</svg>
