<?xml version="1.0" encoding="utf-8"?>
<!-- Generated by IcoMoon.io -->
<!DOCTYPE svg PUBLIC "-//W3C//DTD SVG 1.1//EN" "http://www.w3.org/Graphics/SVG/1.1/DTD/svg11.dtd">
<svg version="1.1" xmlns="http://www.w3.org/2000/svg" xmlns:xlink="http://www.w3.org/1999/xlink" width="16" height="16" viewBox="0 0 16 16">
<path fill="#444444" d="M15.707 0.293c-0.39-0.391-1.030-0.391-1.42 0l-2.035 2.037c-0.834-0.554-1.791-0.83-2.752-0.83-1.28 0-2.559 0.488-3.535 1.465l-3 3c-1.711 1.709-1.922 4.351-0.636 6.291l-2.035 2.037c-0.391 0.39-0.391 1.024 0 1.414 0.195 0.196 0.451 0.293 0.707 0.293s0.511-0.098 0.707-0.293l2.035-2.037c0.834 0.555 1.797 0.83 2.758 0.83 1.28 0 2.559-0.489 3.535-1.465l2.994-3c1.711-1.709 1.922-4.351 0.636-6.291l2.041-2.037c0.391-0.391 0.391-1.024 0.001-1.414zM12.494 6.5c0 0.801-0.313 1.555-0.879 2.121l-2.994 3c-0.566 0.566-1.32 0.879-2.121 0.879-0.453 0-0.886-0.111-1.285-0.301l1.492-1.492c0.391-0.39 0.391-1.024 0-1.414s-1.024-0.39-1.414 0l-1.492 1.492c-0.192-0.396-0.301-0.83-0.301-1.285 0-0.801 0.313-1.554 0.879-2.121l3-3c0.566-0.567 1.32-0.879 2.121-0.879 0.453 0 0.885 0.111 1.283 0.301l-1.521 1.523c-0.39 0.391-0.39 1.024 0 1.414 0.196 0.196 0.451 0.293 0.707 0.293 0.254 0 0.51-0.098 0.705-0.293l1.52-1.524c0.192 0.396 0.301 0.83 0.301 1.285z"></path>
</svg>
