<?xml version="1.0" standalone="no"?><!DOCTYPE svg PUBLIC "-//W3C//DTD SVG 1.1//EN" "http://www.w3.org/Graphics/SVG/1.1/DTD/svg11.dtd"><svg width="100%" height="100%" viewBox="0 0 33 33" version="1.1" xmlns="http://www.w3.org/2000/svg" xmlns:xlink="http://www.w3.org/1999/xlink" xml:space="preserve" style="fill-rule:evenodd;clip-rule:evenodd;stroke-linejoin:round;stroke-miterlimit:1.41421;"><g><path d="M27.6568,30.9738l-22.385,0c-1.93111,0 -3.63783,-0.966598 -4.66644,-2.43279c0.139,2.44957 2.1684,4.40745 4.66644,4.40745l22.385,0c2.50002,0 4.52942,-1.95492 4.66743,-4.40745c-1.0286,1.46619 -2.73533,2.43279 -4.66743,2.43279Z" style="fill:#000;fill-rule:nonzero;"/><path d="M27.6568,31.0228l-22.385,0c-1.93111,0 -3.63783,-0.966598 -4.66644,-2.43279c0.139,2.44957 2.1684,4.40745 4.66644,4.40745l22.385,0c2.50002,0 4.52942,-1.95492 4.66743,-4.40745c-1.0286,1.46619 -2.73533,2.43279 -4.66743,2.43279Z" style="fill:#000;fill-rule:nonzero;"/><path d="M27.6566,1.36087l-0.67713,0l0,-0.370249c0,-0.545007 -0.443808,-0.987332 -0.992859,-0.987332c-0.548058,0 -0.992859,0.442325 -0.992859,0.987332l0,0.370249l-1.82388,0l0,-0.370249c0,-0.545007 -0.444801,-0.987332 -0.992859,-0.987332c-0.548058,0 -0.992859,0.442325 -0.992859,0.987332l0,0.370249l-1.82388,0l0,-0.370249c0,-0.545007 -0.443808,-0.987332 -0.992859,-0.987332c-0.548058,0 -0.992859,0.442325 -0.992859,0.987332l0,0.370249l-1.82388,0l0,-0.370249c0,-0.545007 -0.444801,-0.987332 -0.992859,-0.987332c-0.548058,0 -0.992859,0.442325 -0.992859,0.987332l0,0.370249l-1.82388,0l0,-0.370249c0,-0.545007 -0.444801,-0.987332 -0.992859,-0.987332c-0.548058,0 -0.992859,0.442325 -0.992859,0.987332l0,0.370249l-1.82289,0l0,-0.370249c0,-0.545007 -0.444801,-0.987332 -0.992859,-0.987332c-0.548058,0 -0.992859,0.442325 -0.992859,0.987332l0,0.370249l-0.67713,0c-2.5864,0 -4.69126,2.09314 -4.69126,4.66613l0,19.2994c0,2.572 2.10486,4.66712 4.69324,4.66712l22.385,0c2.58739,0 4.69424,-2.09314 4.69424,-4.66712l0,-19.2994c-0.000992859,-2.57299 -2.10585,-4.66613 -4.69424,-4.66613ZM25.4921,0.990624c0,-0.272504 0.2224,-0.493666 0.496429,-0.493666c0.274029,0 0.496429,0.221162 0.496429,0.493666l0,6.39989c0,0.272504 -0.2224,0.493666 -0.496429,0.493666c-0.274029,0 -0.496429,-0.221162 -0.496429,-0.493666l0,-6.39989ZM21.6825,0.990624c0,-0.272504 0.223393,-0.493666 0.496429,-0.493666c0.274029,0 0.496429,0.221162 0.496429,0.493666l0,6.39989c0,0.272504 -0.2224,0.493666 -0.496429,0.493666c-0.273036,0 -0.496429,-0.221162 -0.496429,-0.493666l0,-6.39989ZM17.8729,0.990624c0,-0.272504 0.2224,-0.493666 0.496429,-0.493666c0.274029,0 0.496429,0.221162 0.496429,0.493666l0,6.39989c0,0.272504 -0.2224,0.493666 -0.496429,0.493666c-0.274029,0 -0.496429,-0.221162 -0.496429,-0.493666l0,-6.39989ZM14.0633,0.990624c0,-0.272504 0.2224,-0.493666 0.496429,-0.493666c0.274029,0 0.496429,0.221162 0.496429,0.493666l0,6.39989c0,0.272504 -0.2224,0.493666 -0.496429,0.493666c-0.274029,0 -0.496429,-0.221162 -0.496429,-0.493666l0,-6.39989ZM10.2537,0.990624c0,-0.272504 0.2224,-0.493666 0.496429,-0.493666c0.274029,0 0.496429,0.221162 0.496429,0.493666l0,6.39989c0,0.272504 -0.2224,0.493666 -0.496429,0.493666c-0.274029,0 -0.496429,-0.221162 -0.496429,-0.493666l0,-6.39989ZM6.44415,0.990624c0,-0.272504 0.2224,-0.493666 0.496429,-0.493666c0.274029,0 0.496429,0.221162 0.496429,0.493666l0,6.39989c0,0.272504 -0.2224,0.493666 -0.496429,0.493666c-0.274029,0 -0.496429,-0.221162 -0.496429,-0.493666l0,-6.39989ZM29.959,25.3264c0,1.26082 -1.03257,2.28765 -2.30145,2.28765l-22.386,0c-1.26887,0 -2.30145,-1.02683 -2.30145,-2.28765l0,-19.2994c0,-1.26181 1.03257,-2.28864 2.30145,-2.28864l0.67713,0l0,2.48117c-0.336579,0.282377 -0.556001,0.700018 -0.556001,1.17196c0,0.849105 0.694008,1.54024 1.54886,1.54024c0.854851,0 1.54886,-0.690145 1.54886,-1.54024c0,-0.471945 -0.219422,-0.888599 -0.556001,-1.17196l0,-2.48117l1.82388,0l0,2.48117c-0.336579,0.282377 -0.556001,0.700018 -0.556001,1.17196c0,0.849105 0.694008,1.54024 1.54886,1.54024c0.854851,0 1.54886,-0.690145 1.54886,-1.54024c0,-0.471945 -0.219422,-0.888599 -0.556001,-1.17196l0,-2.48117l1.82388,0l0,2.48117c-0.336579,0.282377 -0.556001,0.700018 -0.556001,1.17196c0,0.849105 0.694008,1.54024 1.54886,1.54024c0.854851,0 1.54886,-0.690145 1.54886,-1.54024c0,-0.471945 -0.219422,-0.888599 -0.556001,-1.17196l0,-2.48117l1.82388,0l0,2.48117c-0.336579,0.282377 -0.556001,0.700018 -0.556001,1.17196c0,0.849105 0.694008,1.54024 1.54886,1.54024c0.854851,0 1.54985,-0.690145 1.54985,-1.54024c0,-0.471945 -0.220415,-0.888599 -0.556994,-1.17196l0,-2.48117l1.82388,0l0,2.48117c-0.336579,0.282377 -0.556001,0.700018 -0.556001,1.17196c0,0.849105 0.694008,1.54024 1.54886,1.54024c0.854851,0 1.54886,-0.690145 1.54886,-1.54024c0,-0.471945 -0.219422,-0.888599 -0.556001,-1.17196l0,-2.48117l1.82388,0l0,2.48117c-0.336579,0.282377 -0.556001,0.700018 -0.556001,1.17196c0,0.849105 0.693015,1.54024 1.54886,1.54024c0.855844,0 1.54985,-0.690145 1.54985,-1.54024c0,-0.471945 -0.219422,-0.888599 -0.556994,-1.17196l0,-2.48117l0.67713,0c1.26788,0 2.30045,1.02683 2.30045,2.28864l-0.000992859,19.2994Z" style="fill:#000;fill-rule:nonzero;"/><path d="M27.6566,1.40989l-0.67713,0l0,-0.370249c0,-0.545007 -0.443808,-0.987332 -0.992859,-0.987332c-0.548058,0 -0.992859,0.442325 -0.992859,0.987332l0,0.370249l-1.82388,0l0,-0.370249c0,-0.545007 -0.444801,-0.987332 -0.992859,-0.987332c-0.548058,0 -0.992859,0.442325 -0.992859,0.987332l0,0.370249l-1.82388,0l0,-0.370249c0,-0.545007 -0.443808,-0.987332 -0.992859,-0.987332c-0.548058,0 -0.992859,0.442325 -0.992859,0.987332l0,0.370249l-1.82388,0l0,-0.370249c0,-0.545007 -0.444801,-0.987332 -0.992859,-0.987332c-0.548058,0 -0.992859,0.442325 -0.992859,0.987332l0,0.370249l-1.82388,0l0,-0.370249c0,-0.545007 -0.444801,-0.987332 -0.992859,-0.987332c-0.548058,0 -0.992859,0.442325 -0.992859,0.987332l0,0.370249l-1.82289,0l0,-0.370249c0,-0.545007 -0.444801,-0.987332 -0.992859,-0.987332c-0.548058,0 -0.992859,0.442325 -0.992859,0.987332l0,0.370249l-0.67713,0c-2.5864,0 -4.69126,2.09314 -4.69126,4.66613l0,19.2994c0,2.572 2.10486,4.66712 4.69324,4.66712l22.385,0c2.58739,0 4.69424,-2.09314 4.69424,-4.66712l0,-19.2994c-0.000992859,-2.57299 -2.10585,-4.66613 -4.69424,-4.66613ZM25.4921,1.03964c0,-0.272504 0.2224,-0.493666 0.496429,-0.493666c0.274029,0 0.496429,0.221162 0.496429,0.493666l0,6.39989c0,0.272504 -0.2224,0.493666 -0.496429,0.493666c-0.274029,0 -0.496429,-0.221162 -0.496429,-0.493666l0,-6.39989ZM21.6825,1.03964c0,-0.272504 0.223393,-0.493666 0.496429,-0.493666c0.274029,0 0.496429,0.221162 0.496429,0.493666l0,6.39989c0,0.272504 -0.2224,0.493666 -0.496429,0.493666c-0.273036,0 -0.496429,-0.221162 -0.496429,-0.493666l0,-6.39989ZM17.8729,1.03964c0,-0.272504 0.2224,-0.493666 0.496429,-0.493666c0.274029,0 0.496429,0.221162 0.496429,0.493666l0,6.39989c0,0.272504 -0.2224,0.493666 -0.496429,0.493666c-0.274029,0 -0.496429,-0.221162 -0.496429,-0.493666l0,-6.39989ZM14.0633,1.03964c0,-0.272504 0.2224,-0.493666 0.496429,-0.493666c0.274029,0 0.496429,0.221162 0.496429,0.493666l0,6.39989c0,0.272504 -0.2224,0.493666 -0.496429,0.493666c-0.274029,0 -0.496429,-0.221162 -0.496429,-0.493666l0,-6.39989ZM10.2537,1.03964c0,-0.272504 0.2224,-0.493666 0.496429,-0.493666c0.274029,0 0.496429,0.221162 0.496429,0.493666l0,6.39989c0,0.272504 -0.2224,0.493666 -0.496429,0.493666c-0.274029,0 -0.496429,-0.221162 -0.496429,-0.493666l0,-6.39989ZM6.44415,1.03964c0,-0.272504 0.2224,-0.493666 0.496429,-0.493666c0.274029,0 0.496429,0.221162 0.496429,0.493666l0,6.39989c0,0.272504 -0.2224,0.493666 -0.496429,0.493666c-0.274029,0 -0.496429,-0.221162 -0.496429,-0.493666l0,-6.39989ZM29.959,25.3754c0,1.26082 -1.03257,2.28765 -2.30145,2.28765l-22.386,0c-1.26887,0 -2.30145,-1.02683 -2.30145,-2.28765l0,-19.2994c0,-1.26181 1.03257,-2.28864 2.30145,-2.28864l0.67713,0l0,2.48117c-0.336579,0.282377 -0.556001,0.700018 -0.556001,1.17196c0,0.849105 0.694008,1.54024 1.54886,1.54024c0.854851,0 1.54886,-0.690145 1.54886,-1.54024c0,-0.471945 -0.219422,-0.888599 -0.556001,-1.17196l0,-2.48117l1.82388,0l0,2.48117c-0.336579,0.282377 -0.556001,0.700018 -0.556001,1.17196c0,0.849105 0.694008,1.54024 1.54886,1.54024c0.854851,0 1.54886,-0.690145 1.54886,-1.54024c0,-0.471945 -0.219422,-0.888599 -0.556001,-1.17196l0,-2.48117l1.82388,0l0,2.48117c-0.336579,0.282377 -0.556001,0.700018 -0.556001,1.17196c0,0.849105 0.694008,1.54024 1.54886,1.54024c0.854851,0 1.54886,-0.690145 1.54886,-1.54024c0,-0.471945 -0.219422,-0.888599 -0.556001,-1.17196l0,-2.48117l1.82388,0l0,2.48117c-0.336579,0.282377 -0.556001,0.700018 -0.556001,1.17196c0,0.849105 0.694008,1.54024 1.54886,1.54024c0.854851,0 1.54985,-0.690145 1.54985,-1.54024c0,-0.471945 -0.220415,-0.888599 -0.556994,-1.17196l0,-2.48117l1.82388,0l0,2.48117c-0.336579,0.282377 -0.556001,0.700018 -0.556001,1.17196c0,0.849105 0.694008,1.54024 1.54886,1.54024c0.854851,0 1.54886,-0.690145 1.54886,-1.54024c0,-0.471945 -0.219422,-0.888599 -0.556001,-1.17196l0,-2.48117l1.82388,0l0,2.48117c-0.336579,0.282377 -0.556001,0.700018 -0.556001,1.17196c0,0.849105 0.693015,1.54024 1.54886,1.54024c0.855844,0 1.54985,-0.690145 1.54985,-1.54024c0,-0.471945 -0.219422,-0.888599 -0.556994,-1.17196l0,-2.48117l0.67713,0c1.26788,0 2.30045,1.02683 2.30045,2.28864l-0.000992859,19.2994Z" style="fill:#000;fill-rule:nonzero;"/><rect x="11.8842" y="13.6254" width="3.59911" height="3.57908" style="fill:#000;"/><rect x="11.8842" y="13.6744" width="3.59911" height="3.57908" style="fill:#000;"/><rect x="17.4462" y="13.6254" width="3.59713" height="3.57908" style="fill:#000;"/><rect x="17.4462" y="13.6744" width="3.59713" height="3.57908" style="fill:#000;"/><rect x="23.0062" y="13.6254" width="3.59911" height="3.57908" style="fill:#000;"/><rect x="23.0062" y="13.6744" width="3.59911" height="3.57908" style="fill:#000;"/><rect x="6.32324" y="19.1544" width="3.59812" height="3.57908" style="fill:#000;"/><rect x="6.32324" y="19.2034" width="3.59812" height="3.57908" style="fill:#000;"/><rect x="11.8842" y="19.1544" width="3.59911" height="3.57908" style="fill:#000;"/><rect x="11.8842" y="19.2034" width="3.59911" height="3.57908" style="fill:#000;"/><rect x="17.4452" y="19.1544" width="3.59812" height="3.57908" style="fill:#000;"/><rect x="17.4452" y="19.2034" width="3.59812" height="3.57908" style="fill:#000;"/><rect x="23.0062" y="19.1544" width="3.59812" height="3.57908" style="fill:#000;"/><rect x="23.0062" y="19.2034" width="3.59812" height="3.57908" style="fill:#000;"/></g></svg>