<?xml version="1.0" encoding="iso-8859-1"?>
<!-- Generator: Adobe Illustrator 17.1.0, SVG Export Plug-In . SVG Version: 6.00 Build 0)  -->
<!DOCTYPE svg PUBLIC "-//W3C//DTD SVG 1.1//EN" "http://www.w3.org/Graphics/SVG/1.1/DTD/svg11.dtd">
<svg version="1.1" id="Capa_1" xmlns="http://www.w3.org/2000/svg" xmlns:xlink="http://www.w3.org/1999/xlink" x="0px" y="0px"
	 viewBox="0 0 210.293 210.293" style="enable-background:new 0 0 210.293 210.293;" xml:space="preserve">
<path d="M38.431,202.25c-6.54,0-12.604-4.24-14.609-10.811l-23.156-75.9c-2.456-8.051,2.096-16.598,10.146-19.054l35.401-10.8
	V22.376c0-7.903,6.43-14.333,14.333-14.333H195.96c7.903,0,14.333,6.43,14.333,14.333v81.215c0,7.903-6.43,14.333-14.333,14.333
	h-23.019l7.821,25.634c1.189,3.899,0.79,8.029-1.127,11.628c-1.916,3.599-5.119,6.236-9.019,7.426l-127.74,38.972
	C41.398,202.035,39.902,202.25,38.431,202.25z M15.426,143.356l14.135,46.332c1.491,4.885,6.678,7.65,11.564,6.157l127.74-38.972
	c4.886-1.491,7.648-6.678,6.157-11.563l0,0l-8.189-26.844h-18.472l2.881,9.401c0.233,0.761,0.155,1.583-0.218,2.286
	s-1.01,1.229-1.771,1.461L42.252,164.404c-1.581,0.486-3.262-0.405-3.747-1.989l-3.418-11.155c-0.233-0.761-0.155-1.583,0.218-2.286
	s1.01-1.229,1.771-1.461l94.786-29.048H96.576L15.426,143.356z M41.702,152.37l1.66,5.418l101.265-31.033l-1.66-5.418L41.702,152.37
	z M7.825,118.442l5.85,19.175l62.44-19.152H61.476c-4.229,0-8.062-1.729-10.829-4.517c-2.024-1.936-3.485-4.458-4.104-7.29
	L7.825,118.442z M46.212,91.957l-33.65,10.267c-4.519,1.378-7.221,5.919-6.422,10.459l40.072-12.196V91.957z M54.847,109.667
	c1.492,1.399,3.497,2.258,5.698,2.258H195.96c4.595,0,8.333-3.738,8.333-8.333V22.376c0-4.595-3.738-8.333-8.333-8.333H60.546
	c-4.595,0-8.333,3.738-8.333,8.333v80.266c0.001,0.046,0.001,0.092,0,0.138v0.421C52.212,105.714,53.218,107.996,54.847,109.667z
	 M192.586,87.376h-21c-1.657,0-3-1.343-3-3s1.343-3,3-3h21c1.657,0,3,1.343,3,3S194.242,87.376,192.586,87.376z M156.919,87.376h-21
	c-1.657,0-3-1.343-3-3s1.343-3,3-3h21c1.657,0,3,1.343,3,3S158.576,87.376,156.919,87.376z M121.253,87.376h-21
	c-1.657,0-3-1.343-3-3s1.343-3,3-3h21c1.657,0,3,1.343,3,3S122.909,87.376,121.253,87.376z M85.586,87.376h-21c-1.657,0-3-1.343-3-3
	s1.343-3,3-3h21c1.657,0,3,1.343,3,3S87.242,87.376,85.586,87.376z M80.606,65.984H69.566c-4.4,0-7.98-3.58-7.98-7.98v-9.041
	c0-4.4,3.58-7.979,7.98-7.979h11.041c4.4,0,7.979,3.58,7.979,7.979v9.041C88.586,62.404,85.006,65.984,80.606,65.984z
	 M69.566,46.984c-1.092,0-1.98,0.888-1.98,1.979v9.041c0,1.092,0.888,1.98,1.98,1.98h11.041c1.091,0,1.979-0.888,1.979-1.98v-9.041
	c0-1.091-0.888-1.979-1.979-1.979H69.566z"/>
<g>
</g>
<g>
</g>
<g>
</g>
<g>
</g>
<g>
</g>
<g>
</g>
<g>
</g>
<g>
</g>
<g>
</g>
<g>
</g>
<g>
</g>
<g>
</g>
<g>
</g>
<g>
</g>
<g>
</g>
</svg>
